# xmcd CD database file
#
# Track frame offsets:
#	150
#	18867
#	42375
#	58925
#	84030
#	134017
#
# Disc length: 2202 seconds
#
# Revision: 0
# Processed by: cddbd v1.4PL0 Copyright (c) Steve Scherf et al.
# Submitted via: CDex 1.50Beta7
#
DISCID=48089806
DTITLE=Dick Heckstall-Smith - A Story Ended
DYEAR=1972
DGENRE=Jazz
TTITLE0=Future Song
TTITLE1=Crabs
TTITLE2=Moses in the Bullrushourses
TTITLE3=What the Morning Was After
TTITLE4=The Pirate's Dream
TTITLE5=Same Old Thing
EXTD=YEAR: 1972
EXTT0=
EXTT1=
EXTT2=
EXTT3=
EXTT4=
EXTT5=
PLAYORDER=
